<svg width="48" height="48" viewBox="0 0 48 48" fill="none" xmlns="http://www.w3.org/2000/svg">
<path d="M30.7167 34.0462L30.7167 34.0463C30.4192 34.3701 30.0129 34.55 29.5713 34.55H18.0003C17.5603 34.55 17.1524 34.3701 16.8564 34.0447C16.5589 33.7193 16.4178 33.2989 16.458 32.859L30.7167 34.0462ZM30.7167 34.0462C31.0143 33.7208 31.1554 33.2989 31.1151 32.8605M30.7167 34.0462L31.1151 32.8605M31.1151 32.8605L31.1151 32.8604L29.9001 19.4955L29.896 19.45H29.8503H28.2858H28.2358V19.5V21.75C28.2358 22.1364 27.9222 22.45 27.5358 22.45C27.1495 22.45 26.8358 22.1364 26.8358 21.75V19.5V19.45H26.7858H20.7858H20.7358V19.5V21.75C20.7358 22.1364 20.4222 22.45 20.0358 22.45C19.6494 22.45 19.3358 22.1364 19.3358 21.75V19.5V19.45H19.2858H17.7213H17.6757L17.6715 19.4955L16.458 32.8589L31.0653 32.865L31.1151 32.8605ZM28.2358 18V18.05H28.2858H30.5358C30.8985 18.05 31.2009 18.3258 31.2346 18.6871L32.511 32.733C32.5848 33.5561 32.3089 34.3792 31.7514 34.9898C31.1939 35.6004 30.4003 35.95 29.5728 35.95H18.0003C17.1729 35.95 16.3793 35.6004 15.8218 34.9898C15.2642 34.3791 14.9869 33.556 15.0621 32.7331L15.0621 32.733L16.3386 18.687L16.3386 18.6869C16.3708 18.3258 16.6731 18.05 17.0358 18.05H19.2858H19.3358V18V16.5C19.3358 14.0466 21.3324 12.05 23.7858 12.05C24.9787 12.05 26.0984 12.5113 26.9365 13.3494C27.7745 14.1874 28.2358 15.3071 28.2358 16.5V18ZM26.7858 18.05H26.8358V18V16.5C26.8358 15.6815 26.5217 14.9127 25.9466 14.3391C25.3717 13.7657 24.6045 13.45 23.7858 13.45C22.1037 13.45 20.7358 14.8179 20.7358 16.5V18V18.05H20.7858H26.7858Z" fill="black" stroke="white" stroke-width="0.1"/>
<path d="M24 0C10.7452 0 0 10.7452 0 24C0 37.2548 10.7452 48 24 48C37.2486 47.985 47.985 37.2486 48 24C48 10.7452 37.2548 0 24 0ZM24 46.4C11.6288 46.4 1.6 36.3712 1.6 24C1.6 11.6288 11.6288 1.6 24 1.6C36.3653 1.6141 46.3859 11.6347 46.4 24C46.4 36.3712 36.3712 46.4 24 46.4Z" fill="black"/>
</svg>
