<svg width="300" height="300" viewBox="0 0 300 300" fill="none" xmlns="http://www.w3.org/2000/svg">
<g clip-path="url(#clip0)">
<path fill-rule="evenodd" clip-rule="evenodd" d="M150 0C232.788 0 300 67.2131 300 150C300 232.788 232.788 300 150 300C67.2131 300 0 232.788 0 150C0 67.2131 67.2131 0 150 0ZM150 3.15044C231.049 3.15044 296.85 68.9518 296.85 150C296.85 231.049 231.049 296.85 150 296.85C68.9518 296.85 3.15044 231.049 3.15044 150C3.15044 68.9518 68.9518 3.15044 150 3.15044Z" fill="#BCD73F"/>
<path d="M150 297.5C231.462 297.5 297.5 231.462 297.5 150C297.5 68.538 231.462 2.5 150 2.5C68.538 2.5 2.5 68.538 2.5 150C2.5 231.462 68.538 297.5 150 297.5Z" fill="#E0FF4F"/>
<path fill-rule="evenodd" clip-rule="evenodd" d="M150.008 35.1837C213.377 35.1837 264.825 86.6314 264.825 150C264.825 213.368 213.377 264.816 150.008 264.816C86.6399 264.816 35.1928 213.368 35.1928 150C35.1928 86.6314 86.6399 35.1837 150.008 35.1837ZM150.008 36.2917C212.766 36.2917 263.717 87.2425 263.717 150C263.717 212.757 212.766 263.708 150.008 263.708C87.2516 263.708 36.3008 212.757 36.3008 150C36.3008 87.2425 87.2516 36.2917 150.008 36.2917Z" fill="#BCD73F"/>
<path fill-rule="evenodd" clip-rule="evenodd" d="M150.003 49.2874C205.588 49.2874 250.715 94.4151 250.715 149.999C250.715 205.584 205.588 250.711 150.003 250.711C94.4192 250.711 49.292 205.584 49.292 149.999C49.292 94.4151 94.4192 49.2874 150.003 49.2874ZM150.003 50.3955C204.977 50.3955 249.607 95.0262 249.607 149.999C249.607 204.972 204.977 249.603 150.003 249.603C95.0308 249.603 50.4001 204.972 50.4001 149.999C50.4001 95.0262 95.0308 50.3955 150.003 50.3955Z" fill="#BCD73F"/>
<path fill-rule="evenodd" clip-rule="evenodd" d="M150.008 52.9106C203.593 52.9106 247.098 96.4157 247.098 150.001C247.098 203.587 203.593 247.091 150.008 247.091C96.422 247.091 52.9174 203.587 52.9174 150.001C52.9174 96.4157 96.422 52.9106 150.008 52.9106ZM150.008 54.019C202.982 54.019 245.99 97.0271 245.99 150.001C245.99 202.975 202.982 245.983 150.008 245.983C97.0339 245.983 54.0258 202.975 54.0258 150.001C54.0258 97.0271 97.0339 54.019 150.008 54.019Z" fill="#BCD73F"/>
<path fill-rule="evenodd" clip-rule="evenodd" d="M150.008 60.3424C199.491 60.3424 239.666 100.517 239.666 150C239.666 199.483 199.491 239.656 150.008 239.656C100.525 239.656 60.3515 199.483 60.3515 150C60.3515 100.517 100.525 60.3424 150.008 60.3424ZM150.008 61.4506C198.88 61.4506 238.557 101.128 238.557 150C238.557 198.871 198.88 238.548 150.008 238.548C101.137 238.548 61.4597 198.871 61.4597 150C61.4597 101.128 101.137 61.4506 150.008 61.4506Z" fill="#BCD73F"/>
<path d="M143.717 134.541C142.44 135.054 141.226 135.732 140.088 136.573C139.427 137.063 138.8 137.605 138.204 138.201L122.577 153.828C122.426 152.753 122.335 151.67 122.312 150.581C122.244 147.092 122.817 143.594 124.068 140.279C124.151 140.048 124.239 139.817 124.333 139.586C125.687 136.242 127.728 133.112 130.422 130.419C131.012 129.829 131.625 129.273 132.258 128.742C135.932 125.667 140.254 123.677 144.718 122.816C149.951 121.796 155.41 122.306 160.416 124.335C163.76 125.689 166.89 127.719 169.575 130.416C173.241 134.07 175.667 138.537 176.858 143.224L166.234 153.848C166.285 153.631 166.331 153.409 166.374 153.189C166.99 150.037 166.682 146.724 165.459 143.722C164.646 141.713 163.435 139.846 161.79 138.201C159.339 135.749 156.348 134.236 153.193 133.617C150.031 133.01 146.722 133.315 143.717 134.541Z" fill="#BCD73F"/>
<path d="M169.597 169.579C169.004 170.172 168.391 170.727 167.761 171.255C164.078 174.339 159.762 176.323 155.298 177.184C150.067 178.202 144.605 177.694 139.597 175.668C136.259 174.308 133.129 172.278 130.429 169.579C126.778 165.927 124.343 161.469 123.16 156.774L133.776 146.158C133.724 146.375 133.679 146.597 133.639 146.814C133.023 149.966 133.334 153.276 134.551 156.283C135.372 158.285 136.575 160.16 138.211 161.797C140.671 164.257 143.662 165.759 146.823 166.377C149.979 166.996 153.297 166.682 156.293 165.465C157.57 164.952 158.787 164.271 159.93 163.424C160.589 162.937 161.216 162.395 161.814 161.797L177.441 146.169C177.593 147.244 177.675 148.336 177.698 149.425C177.775 152.905 177.199 156.406 175.945 159.718C175.865 159.952 175.771 160.189 175.677 160.42C174.334 163.758 172.288 166.888 169.597 169.579Z" fill="#BCD73F"/>
<path d="M189.346 134.267L161.815 161.799L169.6 169.584L204.916 134.267C200.618 129.969 193.645 129.969 189.346 134.267Z" fill="#BCD73F"/>
<path d="M110.698 165.735L138.229 138.204L130.444 130.419L95.1308 165.733C99.4295 170.031 106.399 170.034 110.698 165.735Z" fill="#BCD73F"/>
</g>
<defs>
<clipPath id="clip0">
<rect width="300" height="300" fill="white"/>
</clipPath>
</defs>
</svg>
