<svg width="64" height="32" viewBox="0 0 64 32" fill="none" xmlns="http://www.w3.org/2000/svg">
<path d="M28.0703 7.06881C27.3325 7.36526 26.6309 7.75723 25.9737 8.24307C25.5917 8.52634 25.2293 8.83926 24.8851 9.18346L15.8567 18.2119C15.7694 17.591 15.7167 16.9652 15.7035 16.336C15.664 14.3202 15.9951 12.2994 16.718 10.3841C16.7658 10.2507 16.8169 10.1173 16.8712 9.98386C17.6535 8.05203 18.8327 6.24371 20.389 4.68737C20.73 4.34646 21.084 4.02531 21.4497 3.71899C23.5725 1.94196 26.0693 0.792412 28.6483 0.295042C31.6721 -0.294554 34.826 0.000245673 37.7179 1.17285C39.6498 1.95514 41.4581 3.12774 43.0095 4.68573C45.1274 6.79708 46.529 9.37779 47.2174 12.0853L41.0793 18.2234C41.1089 18.0982 41.1353 17.9698 41.16 17.843C41.5157 16.0215 41.3379 14.1078 40.6313 12.3735C40.162 11.2125 39.462 10.1337 38.5118 9.18347C37.0954 7.76712 35.3678 6.8926 33.5446 6.53521C31.7182 6.18442 29.8061 6.36064 28.0703 7.06881Z" fill="black"/>
<path d="M43.022 27.3116C42.6794 27.6542 42.3254 27.9754 41.9614 28.28C39.8336 30.062 37.3401 31.2083 34.7611 31.7056C31.739 32.2936 28.5835 32.0004 25.6898 30.8295C23.7613 30.0439 21.953 28.8713 20.3933 27.3117C18.2836 25.202 16.8772 22.6262 16.1937 19.9137L22.3268 13.7806C22.2972 13.9057 22.2708 14.0342 22.2478 14.1594C21.892 15.9809 22.0715 17.8929 22.7748 19.6304C23.2491 20.7866 23.9441 21.8702 24.8894 22.8156C26.3107 24.2369 28.0383 25.1048 29.8648 25.4622C31.6879 25.8195 33.6049 25.6384 35.3358 24.9351C36.0736 24.6387 36.7769 24.2451 37.4373 23.756C37.8177 23.4743 38.1801 23.1614 38.5259 22.8156L47.5543 13.7872C47.6416 14.408 47.6894 15.0388 47.7026 15.6679C47.747 17.6788 47.4143 19.7012 46.6897 21.615C46.6436 21.75 46.5892 21.8867 46.5349 22.0201C45.7592 23.9486 44.5767 25.757 43.022 27.3116Z" fill="black"/>
<path d="M54.4322 6.9109L38.5262 22.8168L43.024 27.3146L63.4277 6.91089C60.9441 4.42734 56.9157 4.42734 54.4322 6.9109Z" fill="black"/>
<path d="M8.99382 25.0913L24.8998 9.18536L20.402 4.68762L0 25.0896C2.48355 27.5732 6.51027 27.5748 8.99382 25.0913Z" fill="black"/>
</svg>
