<svg width="158" height="51" viewBox="0 0 158 51" fill="none" xmlns="http://www.w3.org/2000/svg">
<path d="M31.9956 24.6903C31.9855 24.4284 31.9654 24.1616 31.9402 23.9052V23.8846C31.9251 23.6933 31.8999 23.5019 31.8747 23.3156C31.8596 23.1947 31.8445 23.0739 31.8244 22.9586C31.769 22.5703 31.6985 22.1927 31.6079 21.815C31.6028 21.7898 31.5978 21.7652 31.5927 21.7395L31.5877 21.7198L31.5374 21.5083C31.5172 21.4373 31.5021 21.3618 31.4769 21.2913C31.4669 21.241 31.4518 21.1906 31.4366 21.1403C31.4266 21.1005 31.4165 21.0597 31.4014 21.0194C31.3863 20.9595 31.3712 20.8985 31.351 20.8437C31.3359 20.7827 31.3158 20.7228 31.2906 20.6619C31.2856 20.6271 31.2705 20.5919 31.2604 20.5561C31.2503 20.5209 31.2403 20.4907 31.2252 20.4559C31.21 20.3849 31.1849 20.32 31.1597 20.2545C31.1345 20.1734 31.1093 20.0979 31.0791 20.0224C31.0741 20.0073 31.0691 19.9922 31.059 19.977C30.9935 19.7857 30.918 19.5944 30.8374 19.408V19.4035C30.7569 19.2122 30.6712 19.0153 30.5806 18.829C30.5454 18.7484 30.5051 18.6678 30.4648 18.5873C30.4396 18.5268 30.4094 18.4664 30.3691 18.406C30.359 18.3707 30.3389 18.3355 30.3188 18.3007C30.2734 18.2051 30.2231 18.1144 30.1727 18.0233C30.1627 17.9981 30.1476 17.9679 30.1274 17.9427C30.0569 17.8067 29.9814 17.6713 29.8958 17.5399C29.8857 17.5197 29.8756 17.4945 29.8605 17.4744C29.8303 17.4195 29.7951 17.3636 29.7598 17.3082C29.6339 17.1023 29.503 16.9004 29.3671 16.704L29.362 16.6989C29.2462 16.5277 29.1253 16.3616 29.0045 16.1954L28.9995 16.1909C28.9995 16.1853 28.9944 16.1803 28.9894 16.1752C28.929 16.0952 28.8685 16.0091 28.8031 15.9285C28.798 15.9235 28.793 15.9134 28.788 15.9089C28.5463 15.5967 28.2945 15.289 28.0175 14.9869C27.7909 14.7301 27.5492 14.4732 27.2975 14.2215C24.1503 11.0743 20.3888 9.49817 16.0079 9.49817C11.6119 9.49817 7.83524 11.0743 4.68805 14.2215C1.56101 17.3485 0 21.11 0 25.5065V50.9857C3.32041 50.9857 6.01239 48.2942 6.01239 44.9733V37.2639C8.98334 40.0637 12.478 41.4585 16.5064 41.4585C20.7866 41.4585 24.4423 39.8879 27.4737 36.7407C27.6802 36.5237 27.8765 36.3077 28.0679 36.0907C27.9873 35.9905 27.9118 35.8842 27.8363 35.7835C27.8312 35.7785 27.8262 35.7684 27.8212 35.7633C27.4536 35.2799 27.1313 34.797 26.8392 34.2985C26.1051 33.0734 25.5391 31.7717 25.1614 30.399C24.9716 30.3708 24.958 30.3688 24.7681 30.3406C24.3185 31.1352 23.7429 31.8805 23.0475 32.5764C21.0887 34.5297 18.7421 35.5065 16.0079 35.5065C13.2534 35.5065 10.8968 34.5302 8.94305 32.5764C7.07639 30.7097 6.0275 28.2116 6.01239 25.5715C5.99678 22.8095 6.97367 20.4408 8.94305 18.4714C10.917 16.4975 13.2736 15.5106 16.0079 15.5106C18.727 15.5106 21.0685 16.4975 23.0475 18.4714C23.8784 19.3023 24.533 20.1991 25.0113 21.1604C25.676 22.4852 26.0084 23.935 26.0084 25.5065C26.0084 27.0872 26.2098 28.5878 26.6177 30.0027C26.9651 31.2415 27.4737 32.4152 28.1384 33.5276C28.4103 33.9858 28.7074 34.4345 29.0397 34.8721C29.362 34.4294 29.6591 33.9762 29.921 33.5125C30.5705 32.4102 31.064 31.2465 31.4064 30.0284C31.8143 28.6029 32.0157 27.0922 32.0157 25.5065C32.0157 25.2346 32.0107 24.9622 31.9956 24.6903Z" fill="#030404"/>
<path d="M78.7905 20.3094C78.5236 19.0707 78.0704 17.8823 77.4259 16.7599C77.164 16.3011 76.877 15.853 76.5497 15.4149C76.2526 15.012 75.9303 14.6142 75.5778 14.2265C75.3815 14.0049 75.175 13.7884 74.9635 13.5774C72.2494 10.8578 69.1123 9.49817 65.5517 9.49817C61.9769 9.49817 58.8298 10.8578 56.1106 13.5774C55.879 13.8086 55.6524 14.0452 55.4459 14.2869C55.0934 14.6747 54.7762 15.0725 54.4791 15.4803C54.1618 15.9184 53.8799 16.3666 53.623 16.8248C53.0037 17.9326 52.5706 19.0958 52.3138 20.32C52.1275 21.1906 52.0369 22.0925 52.0369 23.019V37.9543C52.48 37.5963 52.908 37.2141 53.331 36.7956C56.4278 33.6988 58.0039 30.0083 58.0493 25.7125V23.019C58.0493 21.9207 58.2658 20.9036 58.6938 19.9675C59.0664 19.1714 59.5901 18.4211 60.2749 17.7413C61.7604 16.2508 63.5228 15.5106 65.5517 15.5106C67.5865 15.5106 69.3439 16.2508 70.8294 17.7413C71.5092 18.416 72.0278 19.1517 72.3954 19.9423C72.8385 20.8885 73.0601 21.9107 73.0601 23.019V25.7125C73.1054 30.0284 74.6714 33.7194 77.7481 36.7956C78.1762 37.2236 78.6193 37.6219 79.0725 37.984V23.019C79.0725 22.0874 78.9768 21.1856 78.7905 20.3094ZM76.6806 37.8631C75.1297 36.3178 73.9161 34.6006 73.0601 32.7269V40.9605H79.0725V39.8773C78.2366 39.2932 77.4359 38.6235 76.6806 37.8682V37.8631ZM54.3985 37.8631H54.4036L54.3935 37.8737C53.6482 38.6084 52.8627 39.2731 52.0369 39.8476V40.9605H58.0493V32.6917C57.1882 34.575 55.9595 36.3026 54.3985 37.8631Z" fill="#030404"/>
<path d="M99.094 6.01239V13.752C98.6056 13.2837 98.102 12.8561 97.5834 12.4629C94.9649 10.4839 91.9637 9.49696 88.5698 9.49696C84.2493 9.49696 80.5835 11.0831 77.5723 14.2454C77.5672 14.2505 77.5672 14.2505 77.5672 14.2555C77.6327 14.3411 77.6931 14.4217 77.7586 14.5073C78.1312 15.0058 78.4484 15.5043 78.7405 16.0079H78.7355C79.4606 17.2622 79.9692 18.6011 80.2663 19.9909V19.9965C80.3065 20.1823 80.3418 20.3636 80.372 20.5549C80.8051 19.8147 81.3489 19.1203 81.9985 18.4702C83.9724 16.4963 86.329 15.5093 89.0683 15.5093C91.8026 15.5093 94.1592 16.4963 96.1331 18.4702C96.964 19.3011 97.6236 20.1979 98.102 21.1642C98.1473 20.9734 98.1977 20.7815 98.2531 20.5957C99.0084 17.9465 100.428 15.5547 102.443 13.47C102.448 13.4649 102.453 13.4554 102.463 13.4503C102.478 13.4297 102.493 13.4146 102.513 13.3944C102.589 13.3038 102.659 13.2383 102.709 13.188C103.173 12.7197 103.656 12.2816 104.155 11.8793C104.467 11.6219 104.779 11.3802 105.106 11.1541V0C101.786 0 99.094 2.69198 99.094 6.01239ZM103.596 14.4469C101.697 16.3956 100.398 18.586 99.7033 21.0182C99.3105 22.3627 99.1041 23.7827 99.089 25.2782V25.2984C99.094 25.3643 99.094 25.4343 99.094 25.5053C99.094 25.5854 99.094 25.671 99.089 25.7521V25.7571C99.0588 27.2526 98.7264 28.6273 98.0919 29.8912C97.6136 30.8525 96.959 31.7488 96.1331 32.5752C94.1794 34.5284 91.8227 35.5053 89.0683 35.5053C86.3089 35.5053 83.9522 34.5284 81.9985 32.5752C81.4496 32.0263 80.9763 31.4417 80.5835 30.8279C79.6167 29.3318 79.1131 27.6404 79.0728 25.7616C79.0678 25.676 79.0678 25.5904 79.0678 25.5053C79.0678 25.4192 79.0678 25.3386 79.0728 25.2535V23.0178C79.0728 22.0862 78.9772 21.1844 78.7909 20.3082C78.524 19.0694 78.0708 17.8811 77.4262 16.7587C77.1644 16.2999 76.8774 15.8518 76.5501 15.4137C76.2127 15.8367 75.8954 16.2647 75.6084 16.7078C74.9437 17.7149 74.41 18.7774 74.0122 19.8902C73.3928 21.5776 73.0806 23.3798 73.0605 25.3034C73.0554 25.3694 73.0554 25.4394 73.0554 25.5053C73.0554 25.5753 73.0554 25.6458 73.0605 25.7113C73.0856 28.0931 73.5741 30.284 74.5258 32.2831C74.5661 32.3788 74.6114 32.474 74.6668 32.5696C74.7071 32.6557 74.7524 32.7459 74.8027 32.837C74.8783 32.9926 74.9639 33.1487 75.0545 33.3003C75.0747 33.335 75.0948 33.3753 75.125 33.4161C75.2106 33.5717 75.3013 33.7278 75.402 33.8789C75.5178 34.0606 75.6386 34.2465 75.7645 34.4282C75.8652 34.5738 75.9659 34.7198 76.0767 34.8658C76.122 34.9217 76.1623 34.9821 76.2127 35.0426C76.3386 35.2133 76.4695 35.3794 76.6155 35.5461C76.9076 35.9031 77.2198 36.2556 77.5622 36.598V36.6031C77.6226 36.6685 77.683 36.734 77.7485 36.7944C77.7938 36.8397 77.8442 36.8901 77.8895 36.9309C77.8945 36.941 77.8996 36.946 77.9046 36.951C77.96 37.0009 78.0154 37.0568 78.0708 37.1117C78.1111 37.1469 78.1513 37.1827 78.1916 37.2224C78.4787 37.4893 78.7757 37.7466 79.0728 37.9828C79.2189 38.0986 79.3649 38.2149 79.5109 38.3308C79.6519 38.436 79.7929 38.5367 79.939 38.6374C80.0246 38.7034 80.1102 38.7633 80.2008 38.8242C80.3267 38.9093 80.4526 38.9899 80.5835 39.071C83.0811 40.6617 85.9111 41.4573 89.0683 41.4573C93.4643 41.4573 97.2359 39.9013 100.383 36.7944C100.625 36.5532 100.856 36.3115 101.078 36.0597C101.355 35.7521 101.617 35.4404 101.858 35.1226C101.864 35.1176 101.869 35.108 101.874 35.103C101.939 35.0169 102.005 34.9318 102.065 34.8457L102.075 34.8406C102.201 34.675 102.317 34.5133 102.428 34.3421C102.438 34.3371 102.443 34.327 102.448 34.3175C102.523 34.1961 102.609 34.0752 102.684 33.9544L102.765 33.8335C102.785 33.8038 102.805 33.7681 102.825 33.7379C102.871 33.6578 102.921 33.5818 102.966 33.5012V33.4962C103.007 33.4362 103.042 33.3753 103.077 33.3104C103.138 33.2091 103.198 33.1034 103.258 32.9977C103.294 32.9277 103.334 32.8567 103.369 32.7816C103.445 32.6452 103.51 32.5092 103.581 32.3732L103.661 32.202L103.888 31.6985L103.923 31.6179V31.6129L103.928 31.6079C103.933 31.5832 103.943 31.5625 103.953 31.5328C104.029 31.351 104.104 31.1703 104.17 30.9834C104.195 30.923 104.215 30.8576 104.235 30.7926C104.296 30.631 104.351 30.4648 104.401 30.2936C104.427 30.2382 104.442 30.1828 104.457 30.1224C104.467 30.0922 104.477 30.062 104.482 30.0322C104.527 29.8756 104.573 29.7145 104.613 29.5534C104.623 29.5136 104.633 29.4728 104.643 29.4325C104.673 29.3066 104.704 29.1863 104.729 29.0604C104.759 28.9345 104.779 28.8086 104.804 28.6827C104.809 28.6722 104.814 28.657 104.814 28.6424C104.855 28.4405 104.89 28.2341 104.92 28.0276C104.935 27.942 104.945 27.8514 104.955 27.7562C104.981 27.5895 105.001 27.4239 105.016 27.2526C105.026 27.1968 105.031 27.1419 105.031 27.086C105.051 26.9047 105.066 26.7133 105.071 26.527C105.076 26.4822 105.081 26.4314 105.081 26.3815C105.091 26.2148 105.096 26.0487 105.096 25.878C105.101 25.8321 105.101 25.7923 105.101 25.747V25.7269C105.106 25.6559 105.106 25.5804 105.106 25.5053V13.052C104.653 13.4201 104.21 13.8225 103.777 14.2555C103.712 14.321 103.651 14.3814 103.596 14.4469Z" fill="#030404"/>
<path d="M125.898 34.3019C125.193 33.0934 124.654 31.8088 124.271 30.4694V30.4643C124.221 30.2835 124.17 30.1018 124.125 29.9155C123.647 30.8823 122.992 31.7791 122.161 32.61C120.207 34.5637 117.851 35.5401 115.096 35.5401C112.337 35.5401 109.98 34.5637 108.027 32.61C107.206 31.7892 106.556 30.8928 106.078 29.9255C105.881 30.7015 105.63 31.4614 105.317 32.1965C104.748 33.5617 103.988 34.8507 103.046 36.0542C103.278 36.3161 103.52 36.5779 103.777 36.8297C106.904 39.9361 110.675 41.4926 115.096 41.4926C119.492 41.4926 123.264 39.9361 126.411 36.8297C126.648 36.5925 126.879 36.3508 127.096 36.1041C127.02 35.9983 126.94 35.8926 126.864 35.7868C126.512 35.2989 126.185 34.8105 125.898 34.3019ZM131.114 24.7294C131.104 24.457 131.084 24.1901 131.058 23.9282C131.039 23.7067 131.014 23.4856 130.983 23.2691C130.978 23.1931 130.968 23.1226 130.953 23.0521C130.917 22.8204 130.883 22.5943 130.837 22.3672C130.787 22.1155 130.732 21.8637 130.671 21.6169L130.651 21.5364C130.611 21.3702 130.565 21.2045 130.515 21.0379L130.424 20.7357C130.379 20.5801 130.324 20.4235 130.268 20.2725C130.253 20.2221 130.238 20.1718 130.218 20.1269C130.198 20.0665 130.177 20.0056 130.153 19.9507C130.087 19.774 130.021 19.6027 129.951 19.432C129.946 19.4164 129.936 19.4018 129.931 19.3862C129.891 19.2956 129.85 19.2049 129.805 19.1148C129.79 19.069 129.769 19.0242 129.75 18.9783C129.74 18.9481 129.725 18.9179 129.704 18.8877C129.679 18.8222 129.649 18.7568 129.619 18.6964C129.578 18.6163 129.538 18.5352 129.493 18.4552C129.473 18.4144 129.458 18.3791 129.437 18.3388C129.417 18.3086 129.402 18.2784 129.387 18.2482C129.357 18.1827 129.322 18.1173 129.286 18.0518C129.246 17.9763 129.2 17.9007 129.155 17.8257C129.11 17.7446 129.065 17.6696 129.014 17.5885C129.014 17.5885 129.009 17.5885 129.014 17.5835C128.979 17.518 128.939 17.4526 128.899 17.3876C128.879 17.3468 128.853 17.3116 128.823 17.2713C128.717 17.09 128.597 16.9088 128.476 16.7325C128.365 16.5668 128.244 16.4002 128.118 16.239C128.088 16.1892 128.053 16.1383 128.012 16.0935C127.741 15.7304 127.448 15.378 127.136 15.0305C126.91 14.7687 126.663 14.5068 126.411 14.255C123.264 11.1079 119.492 9.53174 115.096 9.53174C111.949 9.53174 109.119 10.3379 106.617 11.9538C106.098 12.2811 105.594 12.6487 105.106 13.0516C104.653 13.4197 104.21 13.822 103.777 14.255C103.711 14.3205 103.651 14.3809 103.595 14.4464C101.697 16.3951 100.398 18.5856 99.7029 21.0177C99.3101 22.3672 99.1036 23.7973 99.0885 25.2979C99.0835 25.379 99.0835 25.459 99.0835 25.5401C99.0835 25.6106 99.0835 25.6806 99.0885 25.7516C99.1036 27.2572 99.3051 28.6823 99.6928 30.0368C100.035 31.2499 100.529 32.4035 101.178 33.4957C101.445 33.959 101.742 34.4071 102.065 34.8452C104.049 32.1915 105.061 29.1601 105.101 25.7466C105.096 25.6756 105.096 25.6106 105.096 25.5401C105.096 25.3689 105.101 25.1972 105.106 25.0315C105.187 23.2636 105.69 21.6673 106.617 20.2372C107.009 19.6279 107.478 19.0544 108.027 18.505C110 16.5311 112.357 15.5441 115.096 15.5441C117.831 15.5441 120.187 16.5311 122.161 18.505C122.992 19.3364 123.652 20.2372 124.125 21.1995C124.79 22.5138 125.117 23.9585 125.122 25.5195V25.5401C125.122 27.1313 125.329 28.6369 125.726 30.0564C126.074 31.2806 126.562 32.4433 127.202 33.5415C127.469 34.0043 127.761 34.4524 128.083 34.8956C128.415 34.4575 128.712 34.0093 128.984 33.5516C129.654 32.4382 130.168 31.2655 130.52 30.0318C130.933 28.6163 131.134 27.1162 131.134 25.5401V25.5195C131.134 25.2531 131.129 24.9912 131.114 24.7294Z" fill="#030404"/>
<path d="M33.0031 21.1503C33.4764 20.189 34.126 19.2922 34.9518 18.4714C36.9258 16.4975 39.2773 15.5106 42.0167 15.5106C44.7509 15.5106 47.1075 16.4975 49.0815 18.4714C49.7411 19.1311 50.295 19.8361 50.7281 20.5818C50.7583 20.39 50.7986 20.1941 50.8389 20.0027L50.8338 20.0073C51.1208 18.6376 51.6093 17.3284 52.3042 16.0846C52.5862 15.5811 52.9034 15.0881 53.2509 14.5991L53.2559 14.5941V14.5896C53.3163 14.5035 53.3818 14.4229 53.4472 14.3378C53.407 14.297 53.3717 14.2618 53.3314 14.2215C50.1842 11.0743 46.4126 9.49817 42.0167 9.49817C37.6207 9.49817 33.844 11.0743 30.6968 14.2215C30.4501 14.4682 30.2084 14.725 29.9818 14.9818C30.9134 16.1803 31.6637 17.4593 32.2327 18.8189C32.5499 19.5742 32.8067 20.3497 33.0031 21.1503ZM58.0497 25.3046C58.0346 23.3911 57.7073 21.604 57.0778 19.9317C56.6649 18.8189 56.1161 17.7614 55.4312 16.7543C55.1442 16.3167 54.8219 15.8933 54.4795 15.4803C54.1623 15.9184 53.8803 16.3666 53.6235 16.8248C53.0041 17.9326 52.5711 19.0958 52.3143 20.32C52.1279 21.1906 52.0373 22.0925 52.0373 23.019V25.2548C52.0423 25.3348 52.0423 25.4204 52.0423 25.5065C52.0423 25.5916 52.0423 25.6772 52.0373 25.7628C51.997 27.6215 51.4935 29.2978 50.5266 30.7938C50.1288 31.4182 49.6454 32.0119 49.0815 32.5764C47.1277 34.5297 44.7711 35.5065 42.0167 35.5065C39.2622 35.5065 36.9056 34.5297 34.9518 32.5764C34.126 31.7551 33.4764 30.8588 33.0081 29.8975C32.3435 28.5676 32.0161 27.1073 32.0161 25.5065C32.0161 22.0064 31.0141 18.9045 28.9999 16.1909C28.6726 16.6284 28.3755 17.0766 28.1086 17.5399C27.454 18.6426 26.9555 19.8058 26.613 21.0295C26.2052 22.4394 26.0088 23.9299 26.0088 25.5065C26.0088 27.0872 26.2102 28.5878 26.6181 30.0027C26.9655 31.2415 27.4741 32.4152 28.1388 33.5276C28.4107 33.9858 28.7078 34.4345 29.0402 34.8721C29.3423 35.285 29.6696 35.6883 30.0221 36.0811C30.2386 36.3228 30.4652 36.5595 30.6968 36.7956C33.8239 39.9025 37.6005 41.4585 42.0167 41.4585C45.1789 41.4585 48.0139 40.6528 50.5266 39.0415C50.6123 38.9961 50.6979 38.9408 50.7784 38.8859C50.9345 38.7796 51.0906 38.6739 51.2417 38.5631C51.3776 38.4679 51.5086 38.3717 51.6395 38.266C51.7755 38.1653 51.9064 38.0651 52.0373 37.9543C52.0474 37.9493 52.0574 37.9442 52.0675 37.9286C52.1078 37.8984 52.1481 37.8682 52.1884 37.8284C52.2488 37.7826 52.3092 37.7322 52.3646 37.6819C52.4905 37.5766 52.6113 37.4704 52.7322 37.3596C52.7473 37.3495 52.7574 37.34 52.7674 37.3249C52.8128 37.2891 52.8581 37.2493 52.8984 37.204C53.0444 37.0731 53.1904 36.9371 53.3314 36.7956C53.407 36.7201 53.4775 36.6446 53.5479 36.5695C53.835 36.282 54.1019 35.9854 54.3536 35.6833C54.3788 35.6576 54.399 35.6324 54.4191 35.6078C54.5248 35.4869 54.6255 35.361 54.7162 35.2351C54.7565 35.1948 54.7917 35.149 54.8169 35.1092C54.9478 34.9431 55.0737 34.7714 55.1946 34.6007C55.2298 34.5604 55.26 34.5196 55.2802 34.4798C55.4161 34.2985 55.537 34.1117 55.6528 33.9259C55.7686 33.7542 55.8693 33.583 55.97 33.4123C56.0153 33.3468 56.0556 33.2758 56.0858 33.2053C56.1463 33.1046 56.2017 33.0039 56.252 32.9087C56.2671 32.8835 56.2822 32.8634 56.2873 32.8433C56.3427 32.7471 56.388 32.657 56.4333 32.5658C56.4434 32.5462 56.4534 32.5311 56.4585 32.5104C56.5088 32.4203 56.5541 32.3246 56.5944 32.234C56.6246 32.1786 56.6498 32.1176 56.675 32.0623C56.7455 31.9167 56.811 31.7652 56.8714 31.6141C56.9721 31.3774 57.0627 31.1413 57.1483 30.8996C57.2591 30.602 57.3548 30.2998 57.4404 29.9927C57.4958 29.8114 57.5411 29.6356 57.5864 29.4539C57.6418 29.2273 57.6922 29.0062 57.7375 28.7746C57.7727 28.6129 57.8029 28.4518 57.8231 28.2856C57.8432 28.195 57.8583 28.0993 57.8684 28.0092C57.8886 27.8883 57.9087 27.7624 57.9188 27.6366C57.9439 27.48 57.9641 27.3188 57.9742 27.1577C57.9842 27.0721 57.9943 26.992 57.9943 26.9059C58.0144 26.7503 58.0245 26.5887 58.0245 26.4326C58.0396 26.2009 58.0497 25.9643 58.0497 25.7226C58.0497 25.7226 58.0547 25.7175 58.0497 25.7125C58.0547 25.642 58.0547 25.5765 58.0547 25.5065C58.0547 25.4406 58.0547 25.3706 58.0497 25.3046Z" fill="#030404"/>
<path d="M152.42 14.2307C149.272 11.0835 145.511 9.51245 141.13 9.51245C136.794 9.51245 133.028 11.0835 129.845 14.2307C129.584 14.4931 129.337 14.7544 129.1 15.0268C130.027 16.2253 130.782 17.4988 131.346 18.8533C131.658 19.6036 131.915 20.3745 132.117 21.1646C132.59 20.2033 133.239 19.3115 134.065 18.4862C136.039 16.5118 138.396 15.5198 141.13 15.5198C143.869 15.5198 146.226 16.5118 148.2 18.4862C150.174 20.4601 151.161 22.8062 151.161 25.5203C151.161 28.2601 150.174 30.6112 148.2 32.5856C146.241 34.5394 143.89 35.5208 141.13 35.5208C138.376 35.5208 136.019 34.5394 134.065 32.5856C133.244 31.7643 132.595 30.868 132.122 29.9067C131.466 28.5819 131.14 27.1271 131.135 25.541V25.5203C131.13 22.0357 130.127 18.9439 128.118 16.2399C127.791 16.678 127.494 17.1261 127.232 17.5844C126.572 18.6821 126.074 19.8408 125.731 21.0589C125.324 22.4693 125.122 23.9543 125.122 25.5203V25.541C125.122 27.1322 125.329 28.6378 125.726 30.0573C126.074 31.2814 126.562 32.4441 127.202 33.5424C127.469 34.0051 127.761 34.4533 128.083 34.8964C128.385 35.3149 128.707 35.7172 129.059 36.1155C129.246 36.332 129.437 36.543 129.639 36.7495C132.67 39.8967 136.331 41.4733 140.632 41.4733C144.64 41.4733 148.129 40.0936 151.1 37.3391V51C154.455 51 157.173 48.2813 157.173 44.9276V25.5203C157.173 21.1445 155.587 17.3779 152.42 14.2307Z" fill="#030404"/>
</svg>
