<svg width="48" height="48" viewBox="0 0 48 48" fill="none" xmlns="http://www.w3.org/2000/svg">
<path d="M24 0C10.7452 0 0 10.7452 0 24C0 37.2548 10.7452 48 24 48C37.2486 47.985 47.985 37.2486 48 24C48 10.7452 37.2548 0 24 0ZM24 46.4C11.6288 46.4 1.6 36.3712 1.6 24C1.6 11.6288 11.6288 1.6 24 1.6C36.3653 1.6141 46.3859 11.6347 46.4 24C46.4 36.3712 36.3712 46.4 24 46.4Z" fill="black"/>
<g clip-path="url(#clip0)">
<path d="M11.1403 18.8982L12.8304 20.2188L11.2397 23.2661C10.4443 24.6713 11.8107 26.0402 12.6813 26.5167C13.5383 26.9857 14.8685 27.0415 16.1113 27.0246L18.3482 23.3677L20.0383 24.2819L17.1054 18.8475L11.1403 18.8982ZM11.3888 26.3579L15.0176 33.0621C15.7467 33.9932 17.122 34.2133 18.547 34.1795H22.3747V27.8308L15.1171 27.78C13.9903 27.8477 12.5156 27.6107 11.3888 26.3579ZM34.2195 14.0028L32.2452 14.8409L30.3511 11.9722C29.5077 10.5954 27.648 11.1268 26.8092 11.6572C25.9835 12.1794 25.2898 13.3158 24.7021 14.4109L26.816 18.1402L25.197 19.1752L31.372 19.2448L34.2195 14.0028ZM27.5747 10.6038L19.9517 10.5273C18.7839 10.7136 17.9246 11.8097 17.2634 13.0725L15.4077 16.4203L20.9604 19.4982L24.5234 13.1751C25.0104 12.1567 25.9327 10.9818 27.5747 10.6038ZM27.9062 36.4726L28.1305 34.3394L31.5577 34.0736C33.1708 34.0035 33.6077 32.1194 33.5504 31.1286C33.4941 30.1532 32.8364 28.9956 32.1635 27.9506L27.8769 27.9914L27.7565 26.0737L24.702 31.4407L27.9062 36.4726ZM34.1007 32.3088L37.8632 25.6788C38.2665 24.567 37.7244 23.284 36.9404 22.0935L34.9121 18.8474L29.5281 22.2117L33.331 28.3935C33.9856 29.3131 34.566 30.6893 34.1007 32.3088Z" fill="#52991A"/>
</g>
<defs>
<clipPath id="clip0">
<rect width="27" height="27" fill="white" transform="translate(11 10)"/>
</clipPath>
</defs>
</svg>
