<svg width="125" height="20" viewBox="0 0 125 20" fill="none" xmlns="http://www.w3.org/2000/svg">
<path d="M3.488 6.496V13.768C3.488 14.568 3.72 15.208 4.184 15.688C4.664 16.168 5.296 16.408 6.08 16.408C6.64 16.408 7.136 16.304 7.568 16.096C8.016 15.872 8.384 15.56 8.672 15.16V6.496H11.96V19H8.672V17.992C8.192 18.392 7.656 18.704 7.064 18.928C6.472 19.136 5.832 19.24 5.144 19.24C3.704 19.24 2.52 18.776 1.592 17.848C0.664 16.904 0.2 15.704 0.2 14.248V6.496H3.488ZM14.5226 19V6.496H17.8106V7.48C18.2906 7.08 18.8186 6.776 19.3946 6.568C19.9866 6.36 20.6266 6.256 21.3146 6.256C22.7546 6.256 23.9386 6.72 24.8666 7.648C25.7946 8.576 26.2586 9.768 26.2586 11.224V19H22.9706V11.704C22.9706 10.92 22.7306 10.288 22.2506 9.808C21.7866 9.328 21.1626 9.088 20.3786 9.088C19.8346 9.088 19.3386 9.2 18.8906 9.424C18.4586 9.632 18.0986 9.936 17.8106 10.336V19H14.5226ZM28.1731 12.76C28.1731 11.848 28.3411 11 28.6771 10.216C29.0291 9.416 29.5011 8.728 30.0931 8.152C30.7011 7.56 31.4131 7.096 32.2291 6.76C33.0451 6.424 33.9171 6.256 34.8451 6.256C35.7731 6.256 36.6451 6.424 37.4611 6.76C38.2771 7.096 38.9811 7.56 39.5731 8.152C40.1811 8.728 40.6531 9.416 40.9891 10.216C41.3411 11 41.5171 11.848 41.5171 12.76C41.5171 13.672 41.3411 14.528 40.9891 15.328C40.6531 16.112 40.1811 16.792 39.5731 17.368C38.9811 17.944 38.2771 18.4 37.4611 18.736C36.6451 19.072 35.7731 19.24 34.8451 19.24C33.9171 19.24 33.0451 19.072 32.2291 18.736C31.4131 18.4 30.7011 17.944 30.0931 17.368C29.5011 16.792 29.0291 16.112 28.6771 15.328C28.3411 14.528 28.1731 13.672 28.1731 12.76ZM34.8451 16.384C35.8051 16.384 36.6211 16.032 37.2931 15.328C37.9651 14.624 38.3011 13.768 38.3011 12.76C38.3011 11.736 37.9651 10.872 37.2931 10.168C36.6211 9.464 35.8051 9.112 34.8451 9.112C33.8851 9.112 33.0691 9.464 32.3971 10.168C31.7251 10.872 31.3891 11.736 31.3891 12.76C31.3891 13.768 31.7251 14.624 32.3971 15.328C33.0691 16.032 33.8851 16.384 34.8451 16.384ZM42.0648 6.496H44.8488V5.296C44.8488 3.904 45.2568 2.832 46.0728 2.08C46.8888 1.328 48.0648 0.951999 49.6008 0.951999C49.9368 0.951999 50.2808 0.975999 50.6328 1.024C50.9848 1.056 51.2888 1.104 51.5448 1.168V3.928C51.2408 3.864 50.9688 3.816 50.7288 3.784C50.5048 3.752 50.2648 3.736 50.0088 3.736C49.3848 3.736 48.9128 3.872 48.5928 4.144C48.2888 4.416 48.1368 4.824 48.1368 5.368V6.496H51.5448V9.256H48.1368V19H44.8488V9.256H42.0648V6.496ZM52.6351 6.496H55.4191V5.296C55.4191 3.904 55.8271 2.832 56.6431 2.08C57.4591 1.328 58.6351 0.951999 60.1711 0.951999C60.5071 0.951999 60.8511 0.975999 61.2031 1.024C61.5551 1.056 61.8591 1.104 62.1151 1.168V3.928C61.8111 3.864 61.5391 3.816 61.2991 3.784C61.0751 3.752 60.8351 3.736 60.5791 3.736C59.9551 3.736 59.4831 3.872 59.1631 4.144C58.8591 4.416 58.7071 4.824 58.7071 5.368V6.496H62.1151V9.256H58.7071V19H55.4191V9.256H52.6351V6.496ZM74.4952 17.608C75.1352 17.608 75.7512 17.48 76.3432 17.224C76.9352 16.968 77.4872 16.592 77.9992 16.096L79.1032 17.296C78.4632 17.904 77.7432 18.376 76.9432 18.712C76.1432 19.048 75.3112 19.216 74.4472 19.216C73.5992 19.216 72.7992 19.056 72.0472 18.736C71.2952 18.416 70.6472 17.976 70.1032 17.416C69.5592 16.856 69.1272 16.192 68.8072 15.424C68.4872 14.656 68.3272 13.84 68.3272 12.976C68.3272 12.112 68.4872 11.304 68.8072 10.552C69.1272 9.784 69.5592 9.12 70.1032 8.56C70.6472 8 71.2952 7.56 72.0472 7.24C72.7992 6.904 73.5992 6.736 74.4472 6.736C75.3112 6.736 76.1512 6.904 76.9672 7.24C77.7992 7.576 78.5272 8.04 79.1512 8.632L78.0232 9.928C77.5432 9.432 76.9912 9.048 76.3672 8.776C75.7432 8.504 75.1112 8.368 74.4712 8.368C73.8632 8.368 73.2872 8.488 72.7432 8.728C72.1992 8.968 71.7272 9.296 71.3272 9.712C70.9432 10.128 70.6392 10.616 70.4152 11.176C70.1912 11.736 70.0792 12.336 70.0792 12.976C70.0792 13.632 70.1912 14.248 70.4152 14.824C70.6552 15.384 70.9672 15.872 71.3512 16.288C71.7512 16.688 72.2232 17.008 72.7672 17.248C73.3112 17.488 73.8872 17.608 74.4952 17.608ZM82.9599 1.792V19H81.1839V2.2L82.9599 1.792ZM85.4366 12.976C85.4366 12.112 85.5966 11.296 85.9166 10.528C86.2366 9.76 86.6686 9.096 87.2126 8.536C87.7726 7.976 88.4286 7.536 89.1806 7.216C89.9326 6.896 90.7326 6.736 91.5806 6.736C92.4286 6.736 93.2206 6.896 93.9566 7.216C94.7086 7.536 95.3566 7.976 95.9006 8.536C96.4606 9.096 96.9006 9.76 97.2206 10.528C97.5406 11.296 97.7006 12.112 97.7006 12.976C97.7006 13.856 97.5406 14.68 97.2206 15.448C96.9006 16.216 96.4606 16.88 95.9006 17.44C95.3566 18 94.7086 18.44 93.9566 18.76C93.2206 19.08 92.4286 19.24 91.5806 19.24C90.7326 19.24 89.9326 19.08 89.1806 18.76C88.4286 18.44 87.7726 18 87.2126 17.44C86.6686 16.88 86.2366 16.216 85.9166 15.448C85.5966 14.68 85.4366 13.856 85.4366 12.976ZM91.5806 17.656C92.1886 17.656 92.7566 17.536 93.2846 17.296C93.8286 17.056 94.2926 16.728 94.6766 16.312C95.0766 15.88 95.3886 15.384 95.6126 14.824C95.8366 14.248 95.9486 13.632 95.9486 12.976C95.9486 12.32 95.8366 11.712 95.6126 11.152C95.3886 10.576 95.0766 10.08 94.6766 9.664C94.2926 9.248 93.8286 8.92 93.2846 8.68C92.7566 8.44 92.1886 8.32 91.5806 8.32C90.9726 8.32 90.3966 8.44 89.8526 8.68C89.3246 8.92 88.8606 9.248 88.4606 9.664C88.0766 10.08 87.7646 10.576 87.5246 11.152C87.3006 11.712 87.1886 12.32 87.1886 12.976C87.1886 13.632 87.3006 14.248 87.5246 14.824C87.7486 15.384 88.0526 15.88 88.4366 16.312C88.8366 16.728 89.3086 17.056 89.8526 17.296C90.3966 17.536 90.9726 17.656 91.5806 17.656ZM101.872 6.976V14.224C101.872 15.28 102.176 16.12 102.784 16.744C103.392 17.368 104.208 17.68 105.232 17.68C105.952 17.68 106.592 17.52 107.152 17.2C107.728 16.864 108.192 16.4 108.544 15.808V6.976H110.32V19H108.544V17.608C108.08 18.152 107.528 18.56 106.888 18.832C106.264 19.104 105.56 19.24 104.776 19.24C103.4 19.24 102.28 18.808 101.416 17.944C100.552 17.08 100.12 15.96 100.12 14.584V6.976H101.872ZM122.724 19V17.728C122.212 18.208 121.62 18.576 120.948 18.832C120.292 19.072 119.588 19.192 118.836 19.192C117.988 19.192 117.196 19.032 116.46 18.712C115.724 18.392 115.084 17.96 114.54 17.416C113.996 16.856 113.564 16.192 113.244 15.424C112.94 14.656 112.788 13.84 112.788 12.976C112.788 12.112 112.94 11.304 113.244 10.552C113.564 9.784 113.996 9.128 114.54 8.584C115.084 8.024 115.724 7.584 116.46 7.264C117.212 6.944 118.012 6.784 118.86 6.784C119.548 6.784 120.22 6.904 120.876 7.144C121.548 7.368 122.156 7.704 122.7 8.152V2.2L124.476 1.792V19H122.724ZM114.54 12.952C114.54 13.608 114.652 14.224 114.876 14.8C115.116 15.376 115.436 15.872 115.836 16.288C116.236 16.704 116.708 17.032 117.252 17.272C117.796 17.512 118.38 17.632 119.004 17.632C119.756 17.632 120.452 17.488 121.092 17.2C121.748 16.896 122.284 16.48 122.7 15.952V10C122.284 9.488 121.748 9.088 121.092 8.8C120.436 8.496 119.74 8.344 119.004 8.344C117.756 8.344 116.7 8.784 115.836 9.664C114.972 10.544 114.54 11.64 114.54 12.952Z" fill="#BFBFBF"/>
</svg>
